<svg width="72" height="13" viewBox="0 0 72 13" fill="none" xmlns="http://www.w3.org/2000/svg">
<path d="M2.64205 12H0.392045L4.48864 0.363636H7.09091L11.1932 12H8.94318L5.83523 2.75H5.74432L2.64205 12ZM2.71591 7.4375H8.85227V9.13068H2.71591V7.4375ZM12.7259 12V0.363636H14.7827V4.71591H14.8679C14.974 4.50379 15.1236 4.27841 15.3168 4.03977C15.5099 3.79735 15.7713 3.59091 16.1009 3.42045C16.4304 3.24621 16.8509 3.15909 17.3622 3.15909C18.0365 3.15909 18.6444 3.33144 19.1861 3.67614C19.7315 4.01705 20.1634 4.52273 20.4815 5.19318C20.8035 5.85985 20.9645 6.67803 20.9645 7.64773C20.9645 8.60606 20.8073 9.42045 20.4929 10.0909C20.1785 10.7614 19.7505 11.2727 19.2088 11.625C18.6671 11.9773 18.0535 12.1534 17.3679 12.1534C16.8679 12.1534 16.4531 12.0701 16.1236 11.9034C15.794 11.7367 15.5289 11.536 15.3281 11.3011C15.1312 11.0625 14.9777 10.8371 14.8679 10.625H14.7486V12H12.7259ZM14.7429 7.63636C14.7429 8.20076 14.8224 8.69508 14.9815 9.11932C15.1444 9.54356 15.3774 9.875 15.6804 10.1136C15.9872 10.3485 16.3584 10.4659 16.794 10.4659C17.2486 10.4659 17.6293 10.3447 17.9361 10.1023C18.2429 9.85606 18.474 9.52083 18.6293 9.09659C18.7884 8.66856 18.8679 8.18182 18.8679 7.63636C18.8679 7.0947 18.7902 6.61364 18.6349 6.19318C18.4796 5.77273 18.2486 5.44318 17.9418 5.20455C17.6349 4.96591 17.2524 4.84659 16.794 4.84659C16.3546 4.84659 15.9815 4.96212 15.6747 5.19318C15.3679 5.42424 15.1349 5.74811 14.9759 6.16477C14.8205 6.58144 14.7429 7.07197 14.7429 7.63636ZM26.5199 12.1705C25.6676 12.1705 24.929 11.983 24.304 11.608C23.679 11.233 23.1941 10.7083 22.8494 10.0341C22.5085 9.35985 22.3381 8.57197 22.3381 7.67045C22.3381 6.76894 22.5085 5.97917 22.8494 5.30114C23.1941 4.62311 23.679 4.09659 24.304 3.72159C24.929 3.34659 25.6676 3.15909 26.5199 3.15909C27.3722 3.15909 28.1108 3.34659 28.7358 3.72159C29.3608 4.09659 29.8438 4.62311 30.1847 5.30114C30.5294 5.97917 30.7017 6.76894 30.7017 7.67045C30.7017 8.57197 30.5294 9.35985 30.1847 10.0341C29.8438 10.7083 29.3608 11.233 28.7358 11.608C28.1108 11.983 27.3722 12.1705 26.5199 12.1705ZM26.5312 10.5227C26.9934 10.5227 27.3797 10.3958 27.6903 10.142C28.0009 9.88447 28.232 9.53977 28.3835 9.10795C28.5388 8.67614 28.6165 8.19508 28.6165 7.66477C28.6165 7.13068 28.5388 6.64773 28.3835 6.21591C28.232 5.7803 28.0009 5.43371 27.6903 5.17614C27.3797 4.91856 26.9934 4.78977 26.5312 4.78977C26.0578 4.78977 25.6638 4.91856 25.3494 5.17614C25.0388 5.43371 24.8059 5.7803 24.6506 6.21591C24.4991 6.64773 24.4233 7.13068 24.4233 7.66477C24.4233 8.19508 24.4991 8.67614 24.6506 9.10795C24.8059 9.53977 25.0388 9.88447 25.3494 10.142C25.6638 10.3958 26.0578 10.5227 26.5312 10.5227ZM38.0099 8.32955V3.27273H40.0668V12H38.0724V10.4489H37.9815C37.7846 10.9375 37.4607 11.3371 37.0099 11.6477C36.563 11.9583 36.0118 12.1136 35.3565 12.1136C34.7846 12.1136 34.2789 11.9867 33.8395 11.733C33.4039 11.4754 33.063 11.1023 32.8168 10.6136C32.5705 10.1212 32.4474 9.52652 32.4474 8.82955V3.27273H34.5043V8.51136C34.5043 9.06439 34.6558 9.50379 34.9588 9.82955C35.2618 10.1553 35.6596 10.3182 36.152 10.3182C36.455 10.3182 36.7486 10.2443 37.0327 10.0966C37.3168 9.94886 37.5497 9.72917 37.7315 9.4375C37.9171 9.14205 38.0099 8.77273 38.0099 8.32955ZM46.5398 3.27273V4.86364H41.5227V3.27273H46.5398ZM42.7614 1.18182H44.8182V9.375C44.8182 9.65152 44.8598 9.86364 44.9432 10.0114C45.0303 10.1553 45.1439 10.2538 45.2841 10.3068C45.4242 10.3598 45.5795 10.3864 45.75 10.3864C45.8788 10.3864 45.9962 10.3769 46.1023 10.358C46.2121 10.339 46.2955 10.322 46.3523 10.3068L46.6989 11.9148C46.589 11.9527 46.4318 11.9943 46.2273 12.0398C46.0265 12.0852 45.7803 12.1117 45.4886 12.1193C44.9735 12.1345 44.5095 12.0568 44.0966 11.8864C43.6837 11.7121 43.3561 11.4432 43.1136 11.0795C42.875 10.7159 42.7576 10.2614 42.7614 9.71591V1.18182ZM59.6548 0.363636H61.7628V7.96591C61.7628 8.79924 61.5658 9.5322 61.1719 10.1648C60.7817 10.7973 60.2325 11.2917 59.5241 11.6477C58.8158 12 57.9882 12.1761 57.0412 12.1761C56.0904 12.1761 55.2609 12 54.5526 11.6477C53.8442 11.2917 53.295 10.7973 52.9048 10.1648C52.5147 9.5322 52.3196 8.79924 52.3196 7.96591V0.363636H54.4276V7.78977C54.4276 8.27462 54.5336 8.70644 54.7457 9.08523C54.9616 9.46402 55.2647 9.76136 55.6548 9.97727C56.045 10.1894 56.5071 10.2955 57.0412 10.2955C57.5753 10.2955 58.0374 10.1894 58.4276 9.97727C58.8215 9.76136 59.1245 9.46402 59.3366 9.08523C59.5488 8.70644 59.6548 8.27462 59.6548 7.78977V0.363636ZM70.8608 5.57955L68.9858 5.78409C68.9328 5.5947 68.84 5.41667 68.7074 5.25C68.5786 5.08333 68.4044 4.94886 68.1847 4.84659C67.965 4.74432 67.696 4.69318 67.3778 4.69318C66.9498 4.69318 66.59 4.78598 66.2983 4.97159C66.0104 5.1572 65.8684 5.39773 65.8722 5.69318C65.8684 5.94697 65.9612 6.15341 66.1506 6.3125C66.3438 6.47159 66.6619 6.60227 67.1051 6.70455L68.5938 7.02273C69.4195 7.20076 70.0331 7.48295 70.4347 7.86932C70.84 8.25568 71.0445 8.76136 71.0483 9.38636C71.0445 9.93561 70.8835 10.4205 70.5653 10.8409C70.2509 11.2576 69.8134 11.5833 69.2528 11.8182C68.6922 12.053 68.0483 12.1705 67.321 12.1705C66.2528 12.1705 65.393 11.947 64.7415 11.5C64.09 11.0492 63.7017 10.4223 63.5767 9.61932L65.5824 9.42614C65.6733 9.82008 65.8665 10.1174 66.1619 10.3182C66.4574 10.5189 66.8419 10.6193 67.3153 10.6193C67.804 10.6193 68.196 10.5189 68.4915 10.3182C68.7907 10.1174 68.9403 9.86932 68.9403 9.57386C68.9403 9.32386 68.8438 9.11742 68.6506 8.95455C68.4612 8.79167 68.1657 8.66667 67.7642 8.57955L66.2756 8.26705C65.4384 8.0928 64.8191 7.79924 64.4176 7.38636C64.0161 6.9697 63.8172 6.44318 63.821 5.80682C63.8172 5.26894 63.9631 4.80303 64.2585 4.40909C64.5578 4.01136 64.9725 3.70455 65.5028 3.48864C66.0369 3.26894 66.6525 3.15909 67.3494 3.15909C68.3722 3.15909 69.1771 3.37689 69.7642 3.8125C70.3551 4.24811 70.7206 4.83712 70.8608 5.57955Z" fill="#EE2B47"/>
</svg>
