<svg width="108" height="109" viewBox="0 0 108 109" fill="none" xmlns="http://www.w3.org/2000/svg">
<g filter="url(#filter0_d_126_27)">
<circle cx="54" cy="50.9987" r="46" stroke="#EBECFF" stroke-width="8"/>
<path d="M8 50.9987C8 76.4038 28.5949 96.9987 54 96.9987C79.4051 96.9987 100 76.4038 100 50.9987C100 25.5936 79.4051 4.99866 54 4.99866" stroke="#FF930E" stroke-width="8"/>
<path d="M45.6186 37.3623V48.9987H43.5107V39.4134H43.4425L40.7209 41.1521V39.2202L43.6129 37.3623H45.6186ZM48.5732 48.9987V47.4759L52.6129 43.5157C52.9993 43.1256 53.3213 42.779 53.5788 42.4759C53.8364 42.1729 54.0296 41.8793 54.1584 41.5952C54.2872 41.3112 54.3516 41.0081 54.3516 40.6862C54.3516 40.3187 54.2682 40.0043 54.1016 39.743C53.9349 39.4778 53.7057 39.2733 53.4141 39.1293C53.1224 38.9854 52.791 38.9134 52.4197 38.9134C52.0372 38.9134 51.7019 38.993 51.4141 39.1521C51.1262 39.3074 50.9027 39.529 50.7436 39.8168C50.5883 40.1047 50.5107 40.4475 50.5107 40.8452H48.505C48.505 40.1066 48.6735 39.4646 49.0107 38.9191C49.3478 38.3737 49.8118 37.9513 50.4027 37.6521C50.9974 37.3528 51.6792 37.2032 52.4482 37.2032C53.2285 37.2032 53.9141 37.349 54.505 37.6407C55.0959 37.9324 55.5542 38.332 55.88 38.8396C56.2095 39.3471 56.3743 39.9267 56.3743 40.5782C56.3743 41.0138 56.291 41.4418 56.1243 41.8623C55.9576 42.2827 55.6641 42.7487 55.2436 43.26C54.8269 43.7714 54.2417 44.3907 53.4879 45.118L51.4822 47.1577V47.2373H56.5504V48.9987H48.5732ZM62.8118 49.2202C61.8762 49.2202 61.0732 48.9835 60.4027 48.51C59.736 48.0327 59.2228 47.3452 58.8629 46.4475C58.5069 45.546 58.3288 44.4608 58.3288 43.1918C58.3326 41.9229 58.5125 40.8434 58.8686 39.9532C59.2285 39.0593 59.7417 38.3774 60.4084 37.9077C61.0788 37.4381 61.88 37.2032 62.8118 37.2032C63.7436 37.2032 64.5447 37.4381 65.2152 37.9077C65.8857 38.3774 66.3989 39.0593 66.755 39.9532C67.1148 40.8471 67.2947 41.9267 67.2947 43.1918C67.2947 44.4646 67.1148 45.5517 66.755 46.4532C66.3989 47.3509 65.8857 48.0365 65.2152 48.51C64.5485 48.9835 63.7474 49.2202 62.8118 49.2202ZM62.8118 47.4418C63.5391 47.4418 64.1129 47.0839 64.5334 46.368C64.9576 45.6483 65.1697 44.5896 65.1697 43.1918C65.1697 42.2676 65.0732 41.4911 64.88 40.8623C64.6868 40.2335 64.4141 39.76 64.0618 39.4418C63.7095 39.1199 63.2929 38.9589 62.8118 38.9589C62.0883 38.9589 61.5163 39.3187 61.0959 40.0384C60.6754 40.7543 60.4633 41.8055 60.4595 43.1918C60.4557 44.1199 60.5485 44.9002 60.7379 45.5327C60.9311 46.1653 61.2038 46.6426 61.5561 46.9646C61.9084 47.2827 62.3269 47.4418 62.8118 47.4418Z" fill="#2C2D3D"/>
<path d="M33.4474 64.9987V56.2714H35.4134V57.7543H35.5156C35.6974 57.2543 35.9986 56.8642 36.419 56.5839C36.8395 56.2998 37.3414 56.1577 37.9247 56.1577C38.5156 56.1577 39.0137 56.3017 39.419 56.5896C39.8281 56.8737 40.116 57.2619 40.2827 57.7543H40.3736C40.5668 57.2695 40.8925 56.8831 41.3509 56.5952C41.813 56.3036 42.3603 56.1577 42.9929 56.1577C43.7959 56.1577 44.4512 56.4115 44.9588 56.9191C45.4664 57.4267 45.7202 58.1672 45.7202 59.1407V64.9987H43.6577V59.4589C43.6577 58.9172 43.5137 58.5214 43.2259 58.2714C42.938 58.0176 42.5857 57.8907 42.169 57.8907C41.6728 57.8907 41.2846 58.046 41.0043 58.3566C40.7277 58.6634 40.5895 59.0631 40.5895 59.5555V64.9987H38.5724V59.3737C38.5724 58.9229 38.4361 58.5631 38.1634 58.2941C37.8944 58.0252 37.5421 57.8907 37.1065 57.8907C36.8111 57.8907 36.5421 57.9665 36.2997 58.118C36.0573 58.2657 35.8641 58.4759 35.7202 58.7487C35.5762 59.0176 35.5043 59.332 35.5043 59.6918V64.9987H33.4474ZM47.8977 64.9987V53.3623H49.9545V57.7146H50.0398C50.1458 57.5024 50.2955 57.2771 50.4886 57.0384C50.6818 56.796 50.9432 56.5896 51.2727 56.4191C51.6023 56.2449 52.0227 56.1577 52.5341 56.1577C53.2083 56.1577 53.8163 56.3301 54.358 56.6748C54.9034 57.0157 55.3352 57.5214 55.6534 58.1918C55.9754 58.8585 56.1364 59.6767 56.1364 60.6464C56.1364 61.6047 55.9792 62.4191 55.6648 63.0896C55.3504 63.76 54.9223 64.2714 54.3807 64.6237C53.839 64.9759 53.2254 65.1521 52.5398 65.1521C52.0398 65.1521 51.625 65.0687 51.2955 64.9021C50.9659 64.7354 50.7008 64.5346 50.5 64.2998C50.303 64.0612 50.1496 63.8358 50.0398 63.6237H49.9205V64.9987H47.8977ZM49.9148 60.635C49.9148 61.1994 49.9943 61.6937 50.1534 62.118C50.3163 62.5422 50.5492 62.8737 50.8523 63.1123C51.1591 63.3471 51.5303 63.4646 51.9659 63.4646C52.4205 63.4646 52.8011 63.3434 53.108 63.1009C53.4148 62.8547 53.6458 62.5195 53.8011 62.0952C53.9602 61.6672 54.0398 61.1805 54.0398 60.635C54.0398 60.0934 53.9621 59.6123 53.8068 59.1918C53.6515 58.7714 53.4205 58.4418 53.1136 58.2032C52.8068 57.9646 52.4242 57.8452 51.9659 57.8452C51.5265 57.8452 51.1534 57.9608 50.8466 58.1918C50.5398 58.4229 50.3068 58.7468 50.1477 59.1634C49.9924 59.5801 49.9148 60.0706 49.9148 60.635ZM57.8849 68.2714V56.2714H59.9077V57.7146H60.027C60.133 57.5024 60.2827 57.2771 60.4759 57.0384C60.669 56.796 60.9304 56.5896 61.2599 56.4191C61.5895 56.2449 62.0099 56.1577 62.5213 56.1577C63.1955 56.1577 63.8035 56.3301 64.3452 56.6748C64.8906 57.0157 65.3224 57.5214 65.6406 58.1918C65.9626 58.8585 66.1236 59.6767 66.1236 60.6464C66.1236 61.6047 65.9664 62.4191 65.652 63.0896C65.3376 63.76 64.9096 64.2714 64.3679 64.6237C63.8262 64.9759 63.2126 65.1521 62.527 65.1521C62.027 65.1521 61.6122 65.0687 61.2827 64.9021C60.9531 64.7354 60.688 64.5346 60.4872 64.2998C60.2902 64.0612 60.1368 63.8358 60.027 63.6237H59.9418V68.2714H57.8849ZM59.902 60.635C59.902 61.1994 59.9815 61.6937 60.1406 62.118C60.3035 62.5422 60.5365 62.8737 60.8395 63.1123C61.1463 63.3471 61.5175 63.4646 61.9531 63.4646C62.4077 63.4646 62.7884 63.3434 63.0952 63.1009C63.402 62.8547 63.633 62.5195 63.7884 62.0952C63.9474 61.6672 64.027 61.1805 64.027 60.635C64.027 60.0934 63.9493 59.6123 63.794 59.1918C63.6387 58.7714 63.4077 58.4418 63.1009 58.2032C62.794 57.9646 62.4115 57.8452 61.9531 57.8452C61.5137 57.8452 61.1406 57.9608 60.8338 58.1918C60.527 58.4229 60.294 58.7468 60.1349 59.1634C59.9796 59.5801 59.902 60.0706 59.902 60.635ZM74.7827 58.5782L72.9077 58.7827C72.8546 58.5934 72.7618 58.4153 72.6293 58.2487C72.5005 58.082 72.3262 57.9475 72.1065 57.8452C71.8868 57.743 71.6179 57.6918 71.2997 57.6918C70.8717 57.6918 70.5118 57.7846 70.2202 57.9702C69.9323 58.1559 69.7902 58.3964 69.794 58.6918C69.7902 58.9456 69.883 59.1521 70.0724 59.3112C70.2656 59.4702 70.5838 59.6009 71.027 59.7032L72.5156 60.0214C73.3414 60.1994 73.955 60.4816 74.3565 60.868C74.7618 61.2543 74.9664 61.76 74.9702 62.385C74.9664 62.9343 74.8054 63.4191 74.4872 63.8396C74.1728 64.2562 73.7353 64.582 73.1747 64.8168C72.6141 65.0517 71.9702 65.1691 71.2429 65.1691C70.1747 65.1691 69.3149 64.9456 68.6634 64.4987C68.0118 64.0479 67.6236 63.421 67.4986 62.618L69.5043 62.4248C69.5952 62.8187 69.7884 63.1161 70.0838 63.3168C70.3793 63.5176 70.7637 63.618 71.2372 63.618C71.7259 63.618 72.1179 63.5176 72.4134 63.3168C72.7126 63.1161 72.8622 62.868 72.8622 62.5725C72.8622 62.3225 72.7656 62.1161 72.5724 61.9532C72.383 61.7903 72.0876 61.6653 71.6861 61.5782L70.1974 61.2657C69.3603 61.0915 68.741 60.7979 68.3395 60.385C67.938 59.9684 67.7391 59.4418 67.7429 58.8055C67.7391 58.2676 67.8849 57.8017 68.1804 57.4077C68.4796 57.01 68.8944 56.7032 69.4247 56.4873C69.9588 56.2676 70.5743 56.1577 71.2713 56.1577C72.294 56.1577 73.099 56.3756 73.6861 56.8112C74.277 57.2468 74.6425 57.8358 74.7827 58.5782Z" fill="#676874"/>
</g>
<defs>
<filter id="filter0_d_126_27" x="0" y="0.998657" width="108" height="108" filterUnits="userSpaceOnUse" color-interpolation-filters="sRGB">
<feFlood flood-opacity="0" result="BackgroundImageFix"/>
<feColorMatrix in="SourceAlpha" type="matrix" values="0 0 0 0 0 0 0 0 0 0 0 0 0 0 0 0 0 0 127 0" result="hardAlpha"/>
<feOffset dy="4"/>
<feGaussianBlur stdDeviation="2"/>
<feComposite in2="hardAlpha" operator="out"/>
<feColorMatrix type="matrix" values="0 0 0 0 0 0 0 0 0 0 0 0 0 0 0 0 0 0 0.25 0"/>
<feBlend mode="normal" in2="BackgroundImageFix" result="effect1_dropShadow_126_27"/>
<feBlend mode="normal" in="SourceGraphic" in2="effect1_dropShadow_126_27" result="shape"/>
</filter>
</defs>
</svg>
