<svg width="100" height="101" viewBox="0 0 100 101" fill="none" xmlns="http://www.w3.org/2000/svg">
<circle cx="50" cy="50.9985" r="46" stroke="#EBECFF" stroke-width="8"/>
<path d="M4 50.9985C4 76.4036 24.5949 96.9985 50 96.9985C75.4051 96.9985 96 76.4036 96 50.9985C96 25.5934 75.4051 4.99854 50 4.99854" stroke="#5A49F8" stroke-width="8"/>
<path d="M41.6186 37.3622V48.9985H39.5107V39.4133H39.4425L36.7209 41.1519V39.2201L39.6129 37.3622H41.6186ZM44.5732 48.9985V47.4758L48.6129 43.5156C48.9993 43.1254 49.3213 42.7788 49.5788 42.4758C49.8364 42.1728 50.0296 41.8792 50.1584 41.5951C50.2872 41.311 50.3516 41.008 50.3516 40.686C50.3516 40.3186 50.2682 40.0042 50.1016 39.7429C49.9349 39.4777 49.7057 39.2732 49.4141 39.1292C49.1224 38.9853 48.791 38.9133 48.4197 38.9133C48.0372 38.9133 47.7019 38.9929 47.4141 39.1519C47.1262 39.3072 46.9027 39.5288 46.7436 39.8167C46.5883 40.1046 46.5107 40.4474 46.5107 40.8451H44.505C44.505 40.1065 44.6735 39.4644 45.0107 38.919C45.3478 38.3735 45.8118 37.9512 46.4027 37.6519C46.9974 37.3527 47.6792 37.2031 48.4482 37.2031C49.2285 37.2031 49.9141 37.3489 50.505 37.6406C51.0959 37.9322 51.5542 38.3319 51.88 38.8394C52.2095 39.347 52.3743 39.9266 52.3743 40.5781C52.3743 41.0137 52.291 41.4417 52.1243 41.8622C51.9576 42.2826 51.6641 42.7485 51.2436 43.2599C50.8269 43.7713 50.2417 44.3906 49.4879 45.1179L47.4822 47.1576V47.2372H52.5504V48.9985H44.5732ZM58.8118 49.2201C57.8762 49.2201 57.0732 48.9834 56.4027 48.5099C55.736 48.0326 55.2228 47.3451 54.8629 46.4474C54.5069 45.5459 54.3288 44.4607 54.3288 43.1917C54.3326 41.9228 54.5125 40.8432 54.8686 39.9531C55.2285 39.0591 55.7417 38.3773 56.4084 37.9076C57.0788 37.4379 57.88 37.2031 58.8118 37.2031C59.7436 37.2031 60.5447 37.4379 61.2152 37.9076C61.8857 38.3773 62.3989 39.0591 62.755 39.9531C63.1148 40.847 63.2947 41.9266 63.2947 43.1917C63.2947 44.4644 63.1148 45.5516 62.755 46.4531C62.3989 47.3508 61.8857 48.0364 61.2152 48.5099C60.5485 48.9834 59.7474 49.2201 58.8118 49.2201ZM58.8118 47.4417C59.5391 47.4417 60.1129 47.0838 60.5334 46.3679C60.9576 45.6482 61.1697 44.5894 61.1697 43.1917C61.1697 42.2675 61.0732 41.491 60.88 40.8622C60.6868 40.2334 60.4141 39.7599 60.0618 39.4417C59.7095 39.1197 59.2929 38.9588 58.8118 38.9588C58.0883 38.9588 57.5163 39.3186 57.0959 40.0383C56.6754 40.7542 56.4633 41.8054 56.4595 43.1917C56.4557 44.1197 56.5485 44.9001 56.7379 45.5326C56.9311 46.1652 57.2038 46.6425 57.5561 46.9644C57.9084 47.2826 58.3269 47.4417 58.8118 47.4417Z" fill="#2C2D3D"/>
<path d="M29.4474 64.9985V56.2713H31.4134V57.7542H31.5156C31.6974 57.2542 31.9986 56.8641 32.419 56.5838C32.8395 56.2997 33.3414 56.1576 33.9247 56.1576C34.5156 56.1576 35.0137 56.3016 35.419 56.5894C35.8281 56.8735 36.116 57.2618 36.2827 57.7542H36.3736C36.5668 57.2694 36.8925 56.883 37.3509 56.5951C37.813 56.3035 38.3603 56.1576 38.9929 56.1576C39.7959 56.1576 40.4512 56.4114 40.9588 56.919C41.4664 57.4266 41.7202 58.1671 41.7202 59.1406V64.9985H39.6577V59.4588C39.6577 58.9171 39.5137 58.5213 39.2259 58.2713C38.938 58.0175 38.5857 57.8906 38.169 57.8906C37.6728 57.8906 37.2846 58.0459 37.0043 58.3565C36.7277 58.6633 36.5895 59.0629 36.5895 59.5554V64.9985H34.5724V59.3735C34.5724 58.9228 34.4361 58.5629 34.1634 58.294C33.8944 58.0251 33.5421 57.8906 33.1065 57.8906C32.8111 57.8906 32.5421 57.9663 32.2997 58.1179C32.0573 58.2656 31.8641 58.4758 31.7202 58.7485C31.5762 59.0175 31.5043 59.3319 31.5043 59.6917V64.9985H29.4474ZM43.8977 64.9985V53.3622H45.9545V57.7144H46.0398C46.1458 57.5023 46.2955 57.2769 46.4886 57.0383C46.6818 56.7959 46.9432 56.5894 47.2727 56.419C47.6023 56.2447 48.0227 56.1576 48.5341 56.1576C49.2083 56.1576 49.8163 56.33 50.358 56.6747C50.9034 57.0156 51.3352 57.5213 51.6534 58.1917C51.9754 58.8584 52.1364 59.6766 52.1364 60.6463C52.1364 61.6046 51.9792 62.419 51.6648 63.0894C51.3504 63.7599 50.9223 64.2713 50.3807 64.6235C49.839 64.9758 49.2254 65.1519 48.5398 65.1519C48.0398 65.1519 47.625 65.0686 47.2955 64.9019C46.9659 64.7353 46.7008 64.5345 46.5 64.2997C46.303 64.061 46.1496 63.8357 46.0398 63.6235H45.9205V64.9985H43.8977ZM45.9148 60.6349C45.9148 61.1993 45.9943 61.6936 46.1534 62.1179C46.3163 62.5421 46.5492 62.8735 46.8523 63.1122C47.1591 63.347 47.5303 63.4644 47.9659 63.4644C48.4205 63.4644 48.8011 63.3432 49.108 63.1008C49.4148 62.8546 49.6458 62.5194 49.8011 62.0951C49.9602 61.6671 50.0398 61.1804 50.0398 60.6349C50.0398 60.0932 49.9621 59.6122 49.8068 59.1917C49.6515 58.7713 49.4205 58.4417 49.1136 58.2031C48.8068 57.9644 48.4242 57.8451 47.9659 57.8451C47.5265 57.8451 47.1534 57.9607 46.8466 58.1917C46.5398 58.4228 46.3068 58.7466 46.1477 59.1633C45.9924 59.58 45.9148 60.0705 45.9148 60.6349ZM53.8849 68.2713V56.2713H55.9077V57.7144H56.027C56.133 57.5023 56.2827 57.2769 56.4759 57.0383C56.669 56.7959 56.9304 56.5894 57.2599 56.419C57.5895 56.2447 58.0099 56.1576 58.5213 56.1576C59.1955 56.1576 59.8035 56.33 60.3452 56.6747C60.8906 57.0156 61.3224 57.5213 61.6406 58.1917C61.9626 58.8584 62.1236 59.6766 62.1236 60.6463C62.1236 61.6046 61.9664 62.419 61.652 63.0894C61.3376 63.7599 60.9096 64.2713 60.3679 64.6235C59.8262 64.9758 59.2126 65.1519 58.527 65.1519C58.027 65.1519 57.6122 65.0686 57.2827 64.9019C56.9531 64.7353 56.688 64.5345 56.4872 64.2997C56.2902 64.061 56.1368 63.8357 56.027 63.6235H55.9418V68.2713H53.8849ZM55.902 60.6349C55.902 61.1993 55.9815 61.6936 56.1406 62.1179C56.3035 62.5421 56.5365 62.8735 56.8395 63.1122C57.1463 63.347 57.5175 63.4644 57.9531 63.4644C58.4077 63.4644 58.7884 63.3432 59.0952 63.1008C59.402 62.8546 59.633 62.5194 59.7884 62.0951C59.9474 61.6671 60.027 61.1804 60.027 60.6349C60.027 60.0932 59.9493 59.6122 59.794 59.1917C59.6387 58.7713 59.4077 58.4417 59.1009 58.2031C58.794 57.9644 58.4115 57.8451 57.9531 57.8451C57.5137 57.8451 57.1406 57.9607 56.8338 58.1917C56.527 58.4228 56.294 58.7466 56.1349 59.1633C55.9796 59.58 55.902 60.0705 55.902 60.6349ZM70.7827 58.5781L68.9077 58.7826C68.8546 58.5932 68.7618 58.4152 68.6293 58.2485C68.5005 58.0819 68.3262 57.9474 68.1065 57.8451C67.8868 57.7429 67.6179 57.6917 67.2997 57.6917C66.8717 57.6917 66.5118 57.7845 66.2202 57.9701C65.9323 58.1557 65.7902 58.3963 65.794 58.6917C65.7902 58.9455 65.883 59.1519 66.0724 59.311C66.2656 59.4701 66.5838 59.6008 67.027 59.7031L68.5156 60.0213C69.3414 60.1993 69.955 60.4815 70.3565 60.8679C70.7618 61.2542 70.9664 61.7599 70.9702 62.3849C70.9664 62.9341 70.8054 63.419 70.4872 63.8394C70.1728 64.2561 69.7353 64.5819 69.1747 64.8167C68.6141 65.0516 67.9702 65.169 67.2429 65.169C66.1747 65.169 65.3149 64.9455 64.6634 64.4985C64.0118 64.0478 63.6236 63.4209 63.4986 62.6179L65.5043 62.4247C65.5952 62.8186 65.7884 63.116 66.0838 63.3167C66.3793 63.5175 66.7637 63.6179 67.2372 63.6179C67.7259 63.6179 68.1179 63.5175 68.4134 63.3167C68.7126 63.116 68.8622 62.8679 68.8622 62.5724C68.8622 62.3224 68.7656 62.116 68.5724 61.9531C68.383 61.7902 68.0876 61.6652 67.6861 61.5781L66.1974 61.2656C65.3603 61.0913 64.741 60.7978 64.3395 60.3849C63.938 59.9682 63.7391 59.4417 63.7429 58.8054C63.7391 58.2675 63.8849 57.8016 64.1804 57.4076C64.4796 57.0099 64.8944 56.7031 65.4247 56.4872C65.9588 56.2675 66.5743 56.1576 67.2713 56.1576C68.294 56.1576 69.099 56.3754 69.6861 56.811C70.277 57.2466 70.6425 57.8357 70.7827 58.5781Z" fill="#676874"/>
</svg>
