<svg width="100" height="90" viewBox="0 0 100 90" fill="none" xmlns="http://www.w3.org/2000/svg">
<path d="M99.9269 16.0164C99.3295 11.2977 95.3525 7.99978 91.0435 8.65399C90.5976 8.72234 90.1651 8.83219 89.7505 8.97378C88.4018 9.23742 73.261 14.7226 66.629 5.85893C63.3655 1.67977 58.2895 -0.649042 52.9483 0.158962C48.2491 0.871764 44.348 3.85967 42.0452 7.9656L36.9447 15.9602C34.555 19.8709 31.1287 22.8832 27.1272 24.5944L15.3793 29.6182C14.5923 29.9013 13.8277 30.2284 13.0854 30.5995L13.0564 30.6117C4.30672 34.9935 -1.17271 45.2681 0.213869 56.2384C1.90585 69.6303 13.1946 78.9846 25.4241 77.1318C26.639 76.9487 27.8183 76.6582 28.9552 76.2749L40.9529 73.3651C47.5224 71.7711 54.3951 73.7215 59.4309 78.6111C60.7818 79.9219 62.4002 81.8431 62.6209 82.2215C62.6209 82.2239 62.632 82.2215 62.6365 82.2239C66.6759 87.7286 73.1785 90.841 80.0311 89.8011C90.4059 88.229 97.6531 77.7445 96.2152 66.3811C96.1952 66.2274 92.546 43.5837 92.546 43.5837C92.5415 43.552 92.5348 43.5178 92.5303 43.4861C91.7078 38.0741 92.7198 32.5158 95.3325 27.8337L98.6852 21.9653C99.7107 20.2736 100.199 18.1841 99.9247 16.0164H99.9269Z" fill="#0FD8B9"/>
</svg>
