<svg width="118" height="36" viewBox="0 0 118 36" fill="none" xmlns="http://www.w3.org/2000/svg">
<path d="M90.3762 17.5112L93.6509 27.6868L95.0603 31.7595L95.8669 35.7785H101.981L98.7323 25.9788L97.3799 22.6943L96.4921 17.5112H90.3762Z" fill="#EE2B47"/>
<path d="M4.1884 17.5112H10.3302L6.14184 35.7785H0L4.1884 17.5112Z" fill="#282F53"/>
<path d="M26.4897 19.3371L25.3705 24.217H19.2304L20.1406 20.276H17.8763L16.5757 25.835H23.158C24.1736 25.835 24.7971 26.644 24.5639 27.6626L23.1321 33.9526C22.8972 34.9712 21.9092 35.7802 20.8937 35.7802H9.99172C8.97787 35.7802 8.35264 34.9712 8.58753 33.9526L9.42003 30.2992H15.5601L14.9349 33.0137H17.1992L18.2148 28.6032H11.6325C10.617 28.6032 9.99345 27.7683 10.2266 26.7756L11.9434 19.3388C12.1766 18.3462 13.1663 17.5112 14.1819 17.5112H25.0838C26.0994 17.5112 26.7229 18.3462 26.488 19.3388L26.4897 19.3371Z" fill="#282F53"/>
<path d="M43.0395 19.3371L40.9583 28.3919C40.7234 29.4105 39.7095 30.2195 38.7198 30.2195H32.1635L30.8888 35.7785H24.7487L28.9371 17.5112H41.6353C42.6233 17.5112 43.2744 18.3462 43.0395 19.3388V19.3371ZM35.0254 27.453L36.6904 20.276H34.452L32.787 27.453H35.0254Z" fill="#282F53"/>
<path d="M72.3151 17.5112L68.1267 35.7785H62.0902L64.2492 26.3304L60.3717 35.7785H56.9363L57.3785 26.3304L55.2195 35.7785H49.183L53.3714 17.5112H60.7879L60.3458 28.0021L64.7432 17.5112H72.3151Z" fill="#282F53"/>
<path d="M76.2203 17.5115H88.8148L84.6247 35.7787H78.4846L80.3845 27.4532H78.2514L76.3515 35.7787H70.2114L73.9836 19.3374C74.2185 18.3447 75.2064 17.5098 76.222 17.5098L76.2203 17.5115ZM78.9008 24.6885H81.0339L82.0478 20.278H79.9147L78.8991 24.6885H78.9008Z" fill="#282F53"/>
<path d="M108.726 4.40967C107.613 4.63487 106.589 5.28795 105.919 6.31175C105.259 7.32169 105.066 8.50486 105.289 9.60488L106.073 9.44204C105.893 8.54297 106.049 7.57634 106.589 6.75176C107.138 5.91332 107.978 5.37976 108.89 5.19614L108.727 4.4114L108.726 4.40967Z" fill="#282F53"/>
<path d="M108.482 3.23347L108.32 2.44873C106.707 2.77787 105.22 3.72718 104.249 5.2135C103.287 6.68597 103.007 8.41135 103.333 10.0137L104.116 9.85091C103.831 8.44947 104.076 6.94062 104.917 5.65351C105.769 4.35254 107.069 3.52277 108.482 3.2352V3.23347Z" fill="#282F53"/>
<path d="M108.076 1.27107L107.914 0.486328C105.8 0.921139 103.852 2.16494 102.577 4.11206C101.313 6.04706 100.947 8.31465 101.377 10.4194L102.159 10.2566C101.77 8.35277 102.102 6.30171 103.245 4.55207C104.399 2.78857 106.163 1.66257 108.076 1.27107Z" fill="#282F53"/>
<path d="M113.895 7.81201L113.113 7.97485C113.308 8.88605 113.154 9.87173 112.607 10.7119C112.068 11.5365 111.246 12.0666 110.353 12.2589L110.515 13.0453C111.608 12.8115 112.615 12.1636 113.275 11.1536C113.945 10.1298 114.133 8.92589 113.897 7.81374L113.895 7.81201Z" fill="#282F53"/>
<path d="M115.852 7.40332L115.07 7.56616C115.368 8.97973 115.128 10.5076 114.277 11.8103C113.436 13.0974 112.152 13.9237 110.757 14.22L110.919 15.0047C112.513 14.6669 113.982 13.7228 114.945 12.2503C115.918 10.764 116.192 9.01957 115.852 7.40332Z" fill="#282F53"/>
<path d="M117.818 6.98047L117.035 7.14331C117.439 9.05925 117.111 11.1311 115.959 12.8946C114.816 14.6442 113.07 15.765 111.175 16.1669L111.337 16.9517C113.434 16.5082 115.363 15.2696 116.628 13.3346C117.902 11.3857 118.263 9.09909 117.818 6.98047Z" fill="#282F53"/>
<g style="mix-blend-mode:overlay">
<path style="mix-blend-mode:screen" opacity="0.4" d="M101.639 10.0396C101.579 10.0517 101.516 10.0396 101.466 10.0049C101.416 9.9703 101.382 9.91486 101.373 9.85423C101.054 7.82223 101.492 5.77463 102.62 4.04752C103.758 2.30827 105.47 1.08699 107.473 0.57596C107.534 0.560369 107.6 0.570763 107.653 0.603677C107.707 0.636591 107.745 0.692025 107.757 0.752656L107.765 0.792499C107.79 0.906832 107.719 1.01943 107.606 1.04715C105.719 1.52527 104.104 2.67552 103.031 4.31429C101.971 5.93574 101.56 7.85861 101.857 9.76588C101.876 9.88888 101.796 10.0032 101.675 10.0292L101.641 10.0361L101.639 10.0396Z" fill="url(#paint0_linear_279_95)"/>
</g>
<g style="mix-blend-mode:overlay">
<path style="mix-blend-mode:screen" opacity="0.4" d="M103.632 9.65208C103.57 9.66594 103.504 9.65208 103.453 9.61397C103.401 9.57759 103.365 9.52042 103.356 9.45633C103.147 7.95441 103.482 6.44556 104.318 5.16885C105.164 3.87481 106.429 2.96015 107.91 2.56172C107.971 2.54613 108.033 2.55479 108.087 2.5877C108.138 2.62061 108.176 2.67258 108.189 2.73322L108.209 2.82849C108.227 2.91511 108.175 3.00172 108.088 3.02424C106.703 3.38457 105.518 4.2334 104.731 5.43909C103.943 6.64478 103.653 8.00291 103.845 9.38703C103.862 9.5083 103.783 9.6209 103.662 9.64515L103.634 9.65034L103.632 9.65208Z" fill="url(#paint1_linear_279_95)"/>
</g>
<g style="mix-blend-mode:overlay">
<path style="mix-blend-mode:screen" opacity="0.4" d="M105.558 9.2394C105.494 9.25325 105.427 9.2394 105.375 9.19955C105.323 9.15971 105.289 9.10081 105.282 9.03672C105.18 8.06316 105.413 7.09306 105.952 6.26675C106.503 5.42484 107.315 4.81853 108.266 4.53097C108.328 4.51191 108.396 4.52057 108.451 4.55349C108.506 4.5864 108.546 4.64184 108.56 4.70593L108.565 4.73365C108.589 4.85145 108.52 4.96751 108.406 5.00389C107.565 5.25854 106.848 5.79382 106.363 6.53699C105.886 7.26629 105.681 8.12379 105.771 8.98301C105.783 9.10081 105.703 9.20995 105.587 9.2342L105.56 9.2394H105.558Z" fill="url(#paint2_linear_279_95)"/>
</g>
<g style="mix-blend-mode:screen" opacity="0.7">
<g style="mix-blend-mode:screen">
<path d="M108.888 5.19636L108.726 4.41162C107.636 4.63336 106.631 5.26392 105.961 6.25307C106.119 6.48 106.294 6.7052 106.48 6.92867C106.515 6.86977 106.549 6.81088 106.587 6.75198C107.137 5.91354 107.976 5.37998 108.888 5.19636Z" fill="#262262"/>
</g>
</g>
<g style="mix-blend-mode:screen" opacity="0.7">
<g style="mix-blend-mode:screen">
<path d="M108.322 2.44531C107.064 2.70343 105.885 3.33745 104.964 4.30928C105.052 4.58126 105.164 4.85669 105.301 5.1356C106.135 4.12912 107.27 3.4795 108.486 3.23005L108.323 2.44531H108.322Z" fill="#262262"/>
</g>
</g>
<g style="mix-blend-mode:screen" opacity="0.7">
<g style="mix-blend-mode:screen">
<path d="M107.914 0.486328C106.89 0.695938 105.905 1.09957 105.016 1.67816C104.836 2.04368 104.743 2.44904 104.734 2.88039C105.71 2.06447 106.864 1.52052 108.078 1.27107L107.916 0.486328L107.914 0.486328Z" fill="#262262"/>
</g>
</g>
<g style="mix-blend-mode:screen" opacity="0.7">
<g style="mix-blend-mode:screen">
<path d="M113.113 7.97507C113.308 8.88627 113.154 9.87195 112.607 10.7121C112.569 10.7693 112.531 10.8247 112.489 10.8802C112.769 10.9633 113.044 11.0326 113.315 11.088C113.95 10.0781 114.128 8.90186 113.897 7.81396L113.114 7.9768L113.113 7.97507Z" fill="#262262"/>
</g>
</g>
<g style="mix-blend-mode:screen" opacity="0.7">
<g style="mix-blend-mode:screen">
<path d="M115.07 7.56616C115.327 8.78224 115.184 10.0815 114.598 11.2491C114.907 11.2629 115.204 11.256 115.488 11.2283C116.007 9.99659 116.116 8.66098 115.852 7.40332L115.07 7.56616Z" fill="#262262"/>
</g>
</g>
<g style="mix-blend-mode:screen" opacity="0.7">
<g style="mix-blend-mode:screen">
<path d="M117.818 6.98074L117.035 7.14357C117.291 8.36139 117.253 9.63984 116.895 10.8629C117.289 10.6775 117.624 10.428 117.885 10.1093C118.058 9.06471 118.033 8.0028 117.819 6.979L117.818 6.98074Z" fill="#262262"/>
</g>
</g>
<g style="mix-blend-mode:overlay">
<path style="mix-blend-mode:screen" opacity="0.4" d="M110.819 12.6057C110.791 12.4896 110.857 12.3718 110.969 12.3337C111.786 12.0548 112.475 11.5074 112.935 10.7677C113.405 10.0124 113.588 9.13589 113.467 8.26453C113.45 8.145 113.527 8.03414 113.643 8.00642L113.671 7.99949C113.735 7.9839 113.8 7.99776 113.854 8.03414C113.907 8.07051 113.944 8.12941 113.952 8.19351C114.09 9.18093 113.883 10.1735 113.351 11.0293C112.829 11.8677 112.049 12.4862 111.125 12.8015C111.063 12.8223 110.995 12.8171 110.938 12.7841C110.881 12.7512 110.84 12.6975 110.824 12.6334L110.817 12.6057H110.819Z" fill="url(#paint3_linear_279_95)"/>
</g>
<g style="mix-blend-mode:overlay">
<path style="mix-blend-mode:screen" opacity="0.4" d="M111.118 14.6426C111.094 14.5231 111.164 14.4053 111.282 14.3724C112.624 13.9982 113.771 13.1598 114.539 11.9853C115.308 10.8108 115.628 9.37815 115.417 7.97324C115.4 7.86237 115.472 7.75843 115.583 7.73591L115.638 7.72379C115.698 7.71166 115.761 7.72379 115.812 7.76016C115.864 7.79654 115.897 7.85024 115.906 7.91088C116.132 9.43185 115.798 10.9615 114.952 12.2538C114.118 13.5305 112.873 14.44 111.415 14.8453C111.353 14.8627 111.287 14.854 111.232 14.8193C111.177 14.7864 111.139 14.731 111.126 14.6686L111.121 14.6409L111.118 14.6426Z" fill="url(#paint4_linear_279_95)"/>
</g>
<g style="mix-blend-mode:overlay">
<path style="mix-blend-mode:screen" opacity="0.4" d="M111.546 16.5222C111.522 16.4044 111.593 16.2883 111.709 16.2589C113.574 15.7721 115.172 14.627 116.232 13.0038C117.301 11.3685 117.71 9.43008 117.4 7.50721C117.381 7.38422 117.46 7.26815 117.581 7.24217L117.609 7.23697C117.671 7.22484 117.735 7.23697 117.786 7.27335C117.838 7.30973 117.873 7.36516 117.883 7.42752C118.215 9.47339 117.78 11.5348 116.641 13.2741C115.503 15.0133 113.809 16.2225 111.821 16.737C111.764 16.7526 111.702 16.7422 111.652 16.711C111.601 16.6798 111.565 16.6278 111.553 16.5707L111.543 16.5222H111.546Z" fill="url(#paint5_linear_279_95)"/>
</g>
<path d="M111.415 9.79158C112.048 8.79836 111.758 7.47868 110.768 6.84398C109.778 6.20928 108.462 6.49992 107.829 7.49313C107.196 8.48634 107.486 9.80603 108.476 10.4407C109.467 11.0754 110.783 10.7848 111.415 9.79158Z" fill="#282F53"/>
<path style="mix-blend-mode:screen" opacity="0.4" d="M108.563 10.2654C107.636 9.65564 107.377 8.40317 107.985 7.47465C108.593 6.54613 109.841 6.28455 110.767 6.89433C111.695 7.5041 111.954 8.75656 111.346 9.68508C110.738 10.6136 109.489 10.8752 108.563 10.2654Z" fill="url(#paint6_linear_279_95)"/>
<g style="mix-blend-mode:screen" opacity="0.6">
<path d="M108.059 7.82768C108.651 6.92341 109.824 6.64624 110.679 7.20924C111.064 7.46216 111.318 7.84327 111.429 8.26768C111.373 7.73067 111.099 7.23003 110.627 6.91994C109.772 6.35694 108.598 6.63411 108.007 7.53838C107.681 8.03555 107.601 8.61934 107.736 9.13904C107.691 8.69903 107.793 8.23477 108.059 7.82941V7.82768Z" fill="url(#paint7_linear_279_95)"/>
</g>
<path style="mix-blend-mode:screen" opacity="0.4" d="M110.791 6.85782C109.809 6.21167 108.489 6.48537 107.843 7.47106C107.199 8.45674 110.759 10.7988 111.403 9.81315C112.047 8.82746 111.772 7.50397 110.79 6.85609L110.791 6.85782Z" fill="url(#paint8_linear_279_95)"/>
<g style="mix-blend-mode:screen">
<path d="M110.74 6.93552C109.955 6.4193 108.902 6.6393 108.387 7.42577C107.872 8.21224 110.714 10.0814 111.228 9.29494C111.743 8.50847 111.524 7.45175 110.74 6.93552Z" fill="#262262"/>
</g>
<path d="M86.1878 35.7786L108.126 10.5215L92.4591 35.7786H86.1878Z" fill="#EE2B47"/>
<defs>
<linearGradient id="paint0_linear_279_95" x1="104.57" y1="-1.22893" x2="104.479" y2="9.63183" gradientUnits="userSpaceOnUse">
<stop stop-color="white"/>
<stop offset="0.16" stop-color="#C2C2C2"/>
<stop offset="0.32" stop-color="#878787"/>
<stop offset="0.49" stop-color="#575757"/>
<stop offset="0.64" stop-color="#313131"/>
<stop offset="0.78" stop-color="#161616"/>
<stop offset="0.9" stop-color="#050505"/>
<stop offset="1"/>
</linearGradient>
<linearGradient id="paint1_linear_279_95" x1="105.812" y1="-1.2171" x2="105.722" y2="9.64366" gradientUnits="userSpaceOnUse">
<stop stop-color="white"/>
<stop offset="0.16" stop-color="#C2C2C2"/>
<stop offset="0.32" stop-color="#878787"/>
<stop offset="0.49" stop-color="#575757"/>
<stop offset="0.64" stop-color="#313131"/>
<stop offset="0.78" stop-color="#161616"/>
<stop offset="0.9" stop-color="#050505"/>
<stop offset="1"/>
</linearGradient>
<linearGradient id="paint2_linear_279_95" x1="106.981" y1="-1.20851" x2="106.891" y2="9.65224" gradientUnits="userSpaceOnUse">
<stop stop-color="white"/>
<stop offset="0.16" stop-color="#C2C2C2"/>
<stop offset="0.32" stop-color="#878787"/>
<stop offset="0.49" stop-color="#575757"/>
<stop offset="0.64" stop-color="#313131"/>
<stop offset="0.78" stop-color="#161616"/>
<stop offset="0.9" stop-color="#050505"/>
<stop offset="1"/>
</linearGradient>
<linearGradient id="paint3_linear_279_95" x1="112.164" y1="10.2628" x2="113.367" y2="11.0103" gradientUnits="userSpaceOnUse">
<stop/>
<stop offset="0.1" stop-color="#050505"/>
<stop offset="0.22" stop-color="#161616"/>
<stop offset="0.36" stop-color="#313131"/>
<stop offset="0.51" stop-color="#575757"/>
<stop offset="0.68" stop-color="#878787"/>
<stop offset="0.84" stop-color="#C2C2C2"/>
<stop offset="1" stop-color="white"/>
</linearGradient>
<linearGradient id="paint4_linear_279_95" x1="113.287" y1="11.1293" x2="114.967" y2="12.2277" gradientUnits="userSpaceOnUse">
<stop/>
<stop offset="0.1" stop-color="#050505"/>
<stop offset="0.22" stop-color="#161616"/>
<stop offset="0.36" stop-color="#313131"/>
<stop offset="0.51" stop-color="#575757"/>
<stop offset="0.68" stop-color="#878787"/>
<stop offset="0.84" stop-color="#C2C2C2"/>
<stop offset="1" stop-color="white"/>
</linearGradient>
<linearGradient id="paint5_linear_279_95" x1="114.496" y1="11.8394" x2="116.658" y2="13.2529" gradientUnits="userSpaceOnUse">
<stop/>
<stop offset="0.1" stop-color="#050505"/>
<stop offset="0.22" stop-color="#161616"/>
<stop offset="0.36" stop-color="#313131"/>
<stop offset="0.51" stop-color="#575757"/>
<stop offset="0.68" stop-color="#878787"/>
<stop offset="0.84" stop-color="#C2C2C2"/>
<stop offset="1" stop-color="white"/>
</linearGradient>
<linearGradient id="paint6_linear_279_95" x1="107.657" y1="8.57987" x2="111.676" y2="8.57987" gradientUnits="userSpaceOnUse">
<stop stop-color="white"/>
<stop offset="0.16" stop-color="#C2C2C2"/>
<stop offset="0.32" stop-color="#878787"/>
<stop offset="0.49" stop-color="#575757"/>
<stop offset="0.64" stop-color="#313131"/>
<stop offset="0.78" stop-color="#161616"/>
<stop offset="0.9" stop-color="#050505"/>
<stop offset="1"/>
</linearGradient>
<linearGradient id="paint7_linear_279_95" x1="107.522" y1="8.10338" x2="111.248" y2="7.33261" gradientUnits="userSpaceOnUse">
<stop/>
<stop offset="0.5" stop-color="white"/>
<stop offset="1"/>
</linearGradient>
<linearGradient id="paint8_linear_279_95" x1="110.794" y1="6.85379" x2="109.136" y2="9.37409" gradientUnits="userSpaceOnUse">
<stop stop-color="white"/>
<stop offset="0.16" stop-color="#C2C2C2"/>
<stop offset="0.32" stop-color="#878787"/>
<stop offset="0.49" stop-color="#575757"/>
<stop offset="0.64" stop-color="#313131"/>
<stop offset="0.78" stop-color="#161616"/>
<stop offset="0.9" stop-color="#050505"/>
<stop offset="1"/>
</linearGradient>
</defs>
</svg>
